<svg width="2500" height="2500" viewBox="0 0 2500 2500" fill="none" xmlns="http://www.w3.org/2000/svg">
<g clip-path="url(#clip0_2963_1361)">
<circle cx="1250" cy="1250" r="1250" fill="#0052FF"/>
<path fill-rule="evenodd" clip-rule="evenodd" d="M2137.9 1250C2137.9 759.6 1740.4 362.1 1250 362.1C759.6 362.1 362.1 759.6 362.1 1250C362.1 1740.4 759.6 2137.9 1250 2137.9C1740.4 2137.9 2137.9 1740.4 2137.9 1250ZM1468.6 966.2H1031.3C995.4 966.2 966.2 997.6 966.2 1036.2V1463.7C966.2 1502.3 995.3 1533.7 1031.3 1533.7H1468.6C1504.5 1533.7 1533.7 1502.4 1533.7 1463.7V1036.2C1533.7 997.6 1504.6 966.2 1468.6 966.2Z" fill="white"/>
</g>
<defs>
<clipPath id="clip0_2963_1361">
<rect width="2500" height="2500" fill="white"/>
</clipPath>
</defs>
</svg>
