<svg width="822" height="822" viewBox="0 0 822 822" fill="none" xmlns="http://www.w3.org/2000/svg">
<path d="M411.932 50.9626C413.931 50.9626 415.829 51.4623 417.628 52.4615L719.007 227.833C722.505 229.832 724.603 233.629 724.603 237.626L723.504 586.27C723.504 590.267 721.306 594.065 717.808 596.063L415.23 769.436C413.531 770.435 411.533 770.935 409.534 770.935C407.536 770.935 405.637 770.435 403.838 769.436L102.559 594.065C99.0617 592.066 96.9633 588.269 96.9633 584.272L98.0624 235.627C98.0624 231.63 100.261 227.833 103.758 225.834L406.336 52.4615C408.035 51.4623 409.934 50.9626 411.932 50.9626ZM412.132 0C401.34 0 390.648 2.69802 380.955 8.19399L78.3769 181.567C59.091 192.659 47.0998 213.144 47.0998 235.427L46.0006 584.072C45.9007 606.355 57.6921 626.94 76.9779 638.132L378.357 813.504C387.95 819.1 398.742 821.898 409.434 821.997C420.126 822.097 430.918 819.299 440.611 813.803L743.189 640.431C762.475 629.339 774.466 608.854 774.466 586.57L775.566 237.926C775.666 215.642 763.874 195.057 744.588 183.865L443.209 8.49377C433.616 2.89788 422.924 0 412.132 0Z" fill="#1B4ADD"/>
<path d="M473.188 190.061H429.02C425.723 190.061 422.725 192.159 421.626 195.257L279.53 584.671C278.631 587.269 280.529 589.967 283.227 589.967H327.395C330.692 589.967 333.69 587.869 334.789 584.771L476.885 195.357C477.785 192.759 475.886 190.061 473.188 190.061ZM395.945 190.061H351.777C348.479 190.061 345.481 192.159 344.382 195.257L202.286 584.671C201.387 587.269 203.286 589.967 205.984 589.967H250.151C253.449 589.967 256.447 587.869 257.546 584.771L399.642 195.357C400.541 192.759 398.643 190.061 395.945 190.061ZM453.103 341.05C451.804 337.552 446.907 337.552 445.708 341.05L422.725 404.004C422.125 405.702 422.125 407.701 422.725 409.4L486.678 584.771C487.777 587.869 490.775 589.967 494.073 589.967H538.24C540.938 589.967 542.837 587.269 541.937 584.671L453.103 341.05ZM619.281 584.671L491.774 235.227C490.475 231.73 485.579 231.73 484.38 235.227L461.397 298.181C460.797 299.88 460.797 301.879 461.397 303.577L564.021 584.871C565.12 587.969 568.118 590.067 571.416 590.067H615.584C618.282 589.967 620.18 587.269 619.281 584.671Z" fill="#1B4ADD"/>
</svg>