<svg width="480" height="480" viewBox="0 0 480 480" fill="none" xmlns="http://www.w3.org/2000/svg">
<g clip-path="url(#clip0_3184_2262)">
<circle cx="240" cy="240" r="240" fill="url(#paint0_linear_3184_2262)"/>
<path d="M317.109 289.777V270.829C328.772 266.828 337.265 254.407 337.265 239.705C337.265 225.002 328.772 212.546 317.109 208.581V189.633C328.092 185.878 336.283 174.614 337.189 161H323.827V166.79C323.827 171.246 321.111 175.176 317.109 177.141V174.439C317.109 170.474 313.637 167.246 309.372 167.246H308.693C304.428 167.246 300.955 170.474 300.955 174.439V177.141C296.954 175.176 294.236 171.281 294.236 166.79V161H280.876C281.782 174.614 289.971 185.878 300.955 189.633V208.581C289.329 212.546 280.8 224.967 280.8 239.705C280.8 254.442 289.292 266.863 300.955 270.829V289.777C289.971 293.531 281.782 304.795 280.876 318.409H294.236V312.619C294.236 308.163 296.954 304.233 300.955 302.268V304.97C300.955 308.936 304.428 312.164 308.693 312.164H309.372C313.637 312.164 317.109 308.936 317.109 304.97V302.268C321.111 304.233 323.827 308.128 323.827 312.619V318.409H337.189C336.283 304.795 328.092 293.531 317.109 289.777ZM294.236 247.986V231.388C294.236 226.932 296.954 223.002 300.955 221.037V223.739C300.955 227.704 304.428 230.932 308.693 230.932H309.372C313.637 230.932 317.109 227.704 317.109 223.739V221.037C321.111 223.002 323.827 226.897 323.827 231.388V247.986C323.827 252.442 321.111 256.372 317.109 258.337V255.635C317.109 251.67 313.637 248.442 309.372 248.442H308.693C304.428 248.442 300.955 251.67 300.955 255.635V258.337C296.992 256.372 294.236 252.477 294.236 247.986Z" fill="#2C1A17"/>
<path d="M399.088 249.775V229.599C410.751 225.599 419.244 213.177 419.244 198.475C419.244 183.773 410.751 171.316 399.088 167.351V161H382.971V167.351C371.308 171.351 362.817 183.773 362.817 198.475C362.817 213.177 371.308 225.634 382.971 229.599V249.775C371.308 253.775 362.817 266.197 362.817 280.899C362.817 295.601 371.308 308.058 382.971 312.023V318.374H399.088V312.023C410.751 308.023 419.244 295.601 419.244 280.899C419.244 266.197 410.751 253.775 399.088 249.775ZM376.215 206.756V190.159C376.215 185.703 378.933 181.773 382.934 179.808V182.51C382.934 186.475 386.407 189.703 390.671 189.703H391.313C395.578 189.703 399.05 186.475 399.05 182.51V179.808C403.052 181.773 405.769 185.668 405.769 190.159V206.756C405.769 211.212 403.052 215.142 399.05 217.107V214.405C399.05 210.44 395.578 207.212 391.313 207.212H390.634C386.369 207.212 382.896 210.44 382.896 214.405V217.107C378.971 215.142 376.215 211.247 376.215 206.756ZM405.806 289.215C405.806 293.671 403.089 297.602 399.088 299.566V295.601C399.088 291.636 395.616 288.408 391.351 288.408H390.709C386.445 288.408 382.971 291.636 382.971 295.601V299.566C378.971 297.602 376.253 293.707 376.253 289.215V272.618C376.253 268.162 378.971 264.232 382.971 262.267V263.705C382.971 267.671 386.445 270.899 390.709 270.899H391.389C395.654 270.899 399.125 267.671 399.125 263.705V262.267C403.127 264.232 405.844 268.127 405.844 272.618V289.215H405.806Z" fill="#2C1A17"/>
<path d="M224.752 223.635C224.601 222.828 224.412 222.056 224.11 221.319C224.223 221.144 249.284 188.686 226.073 168.615C202.898 148.544 175.836 174.721 175.685 174.861C171.382 173.598 167.041 172.826 162.739 172.475C162.739 172.475 162.739 172.475 162.701 172.475C153.869 171.107 141.489 172.475 141.489 172.475C137.224 172.826 132.921 173.598 128.656 174.826C128.505 174.686 101.443 148.509 78.268 168.58C55.0933 188.651 80.1174 221.144 80.2307 221.284C79.9665 222.056 79.74 222.828 79.589 223.6C77.098 237.495 60 241.776 60 265.987C60 290.655 77.8528 310.094 114.313 310.094H129.26C129.335 310.164 135.11 317.814 147.037 318.27C147.037 318.27 149.792 318.55 156.133 318.34C168.778 318.34 174.93 310.234 174.968 310.129H189.914C226.374 310.129 244.227 290.69 244.227 266.022C244.34 241.846 227.242 237.53 224.752 223.635Z" fill="#2C1A17"/>
</g>
<defs>
<linearGradient id="paint0_linear_3184_2262" x1="0" y1="240" x2="480" y2="240" gradientUnits="userSpaceOnUse">
<stop stop-color="#EDAD5A"/>
<stop offset="1" stop-color="#FC740C"/>
</linearGradient>
<clipPath id="clip0_3184_2262">
<rect width="480" height="480" fill="white"/>
</clipPath>
</defs>
</svg>
