<svg width="480" height="480" viewBox="0 0 480 480" fill="none" xmlns="http://www.w3.org/2000/svg">
<path d="M67.875 73.875C107.25 33.1875 153.375 10.1249 211.875 1.87494C228.563 -0.375061 268.125 1.12494 286.125 4.68744C381.375 24.1874 454.313 96.375 474.563 191.625C480 216.75 480.375 262.875 475.5 285.937C465.188 333.375 444.563 372.375 412.125 406.125C377.438 441.937 337.5 464.062 288.375 474.562C263.25 480 217.125 480.375 194.063 475.5C146.625 465.187 107.625 444.562 73.875 412.125C38.0625 377.437 15.9375 337.5 5.43753 288.375C2.94447e-05 263.25 -0.374971 217.125 4.50003 194.062C14.8125 146.625 35.4375 107.625 67.875 73.875Z" fill="white"/>
<path d="M211.875 1.87497C153.375 10.125 107.25 33.1875 67.875 73.875C35.4375 107.625 14.8125 146.625 4.50003 194.062C-0.374971 217.125 2.94447e-05 263.25 5.43753 288.375C15.9375 337.5 38.0625 377.437 73.875 412.125C107.625 444.562 146.625 465.187 194.063 475.5C217.125 480.375 263.25 480 288.375 474.562C337.5 464.062 377.438 441.937 412.125 406.125C444.563 372.375 465.188 333.375 475.5 285.937C480.375 262.875 480 216.75 474.563 191.625C454.313 96.375 381.375 24.1875 286.125 4.68747C268.125 1.12497 228.563 -0.375031 211.875 1.87497ZM279 29.0625C324.188 37.6875 363.75 59.25 395.625 93C434.438 133.875 453.75 182.812 453.75 240C453.75 301.125 431.625 352.687 387.75 394.875C346.5 434.25 297.75 453.75 240 453.75C178.875 453.75 127.313 431.625 85.125 387.75C45.75 346.5 26.25 297.75 26.25 240C26.25 178.875 48.75 126.375 93 84.375C122.625 56.25 156.188 38.625 196.875 30C217.313 25.5 258 25.125 279 29.0625Z" fill="url(#paint0_linear_7549_13946)"/>
<path d="M192.376 167.062C166.876 209.437 146.251 244.312 146.626 244.5C150.564 248.062 239.439 298.875 240.564 298.5C247.876 296.25 331.876 244.687 331.501 242.812C330.751 239.437 241.126 90.1874 239.814 89.9999C239.251 89.9999 217.876 124.687 192.376 167.062Z" fill="#424242"/>
<path d="M150.188 268.125C160.875 284.437 238.125 392.062 239.25 392.25C240.75 392.437 331.688 265.875 330.938 264.75C330.75 264.562 310.125 276.375 285 291.187L239.438 318.187L199.875 294.75C178.125 282 157.312 269.625 153.75 267.562L147.188 263.437L150.188 268.125Z" fill="#FF0079"/>
<defs>
<linearGradient id="paint0_linear_7549_13946" x1="240" y1="478.914" x2="240" y2="0.811554" gradientUnits="userSpaceOnUse">
<stop stop-color="#FE0079"/>
<stop offset="1" stop-color="#434142"/>
</linearGradient>
</defs>
</svg>
